<svg width="32" height="32" viewBox="0 0 32 32" fill="none" xmlns="http://www.w3.org/2000/svg">
<g clip-path="url(#clip0_1385_1034)">
<path d="M30 13C30 11.5555 29.7155 10.1251 29.1627 8.79048C28.6099 7.4559 27.7996 6.24327 26.7782 5.22183C25.7567 4.20038 24.5441 3.39013 23.2095 2.83733C21.8749 2.28452 20.4445 2 19 2H11C8.61305 2 6.32387 2.94821 4.63604 4.63604C2.94821 6.32387 2 8.61305 2 11V14C2 15.3261 2.52678 16.5979 3.46447 17.5355C4.40215 18.4732 5.67392 19 7 19H8.1C8.33053 20.1294 8.94418 21.1444 9.8371 21.8733C10.73 22.6022 11.8473 23.0002 13 23H14.38L18.38 30L20.11 29L16.11 22.11C15.9491 21.7857 15.7032 21.5112 15.3985 21.3157C15.0938 21.1203 14.7418 21.0111 14.38 21H13C12.2044 21 11.4413 20.6839 10.8787 20.1213C10.3161 19.5587 10 18.7956 10 18C10 17.2044 10.3161 16.4413 10.8787 15.8787C11.4413 15.3161 12.2044 15 13 15H14V13H13C11.8473 12.9998 10.73 13.3978 9.8371 14.1267C8.94418 14.8556 8.33053 15.8706 8.1 17H7C6.20435 17 5.44129 16.6839 4.87868 16.1213C4.31607 15.5587 4 14.7956 4 14V12H6C6.79565 12 7.55871 11.6839 8.12132 11.1213C8.68393 10.5587 9 9.79565 9 9V8H7V9C7 9.26522 6.89464 9.51957 6.70711 9.70711C6.51957 9.89464 6.26522 10 6 10H4.08C4.32026 8.3354 5.15181 6.81295 6.42253 5.71118C7.69324 4.60941 9.31815 4.00197 11 4H17V6C17 6.26522 16.8946 6.51957 16.7071 6.70711C16.5196 6.89464 16.2652 7 16 7H14V9H16C16.7956 9 17.5587 8.68393 18.1213 8.12132C18.6839 7.55871 19 6.79565 19 6V4C20.6741 4.00228 22.3143 4.47142 23.7364 5.3547C25.1584 6.23797 26.306 7.50037 27.05 9H26C25.2044 9 24.4413 9.31607 23.8787 9.87868C23.3161 10.4413 23 11.2044 23 12V13H25V12C25 11.7348 25.1054 11.4804 25.2929 11.2929C25.4804 11.1054 25.7348 11 26 11H27.77C27.9233 11.6556 28.0004 12.3267 28 13V14C28 15.3261 27.4732 16.5979 26.5355 17.5355C25.5979 18.4732 24.3261 19 23 19H20V21H23C24.038 20.9986 25.0628 20.7663 26 20.32V21C26 21.7956 25.6839 22.5587 25.1213 23.1213C24.5587 23.6839 23.7956 24 23 24H22V26H23C24.3261 26 25.5979 25.4732 26.5355 24.5355C27.4732 23.5979 28 22.3261 28 21V18.89C29.2798 17.5838 29.9977 15.8287 30 14V13Z" fill="black"/>
</g>
<defs>
<clipPath id="clip0_1385_1034">
<rect width="32" height="32" fill="white"/>
</clipPath>
</defs>
</svg>
