<svg width="32" height="32" viewBox="0 0 32 32" fill="none" xmlns="http://www.w3.org/2000/svg">
<g clip-path="url(#clip0_1385_1075)">
<path d="M30.0001 16L22.0001 24L20.5861 22.586L27.1721 16L20.5861 9.414L22.0001 8L30.0001 16Z" fill="black"/>
<path d="M16 22C15.8687 22.0002 15.7386 21.9744 15.6173 21.9241C15.496 21.8738 15.3858 21.8 15.293 21.707L10.293 16.707C10.2001 16.6142 10.1264 16.504 10.0762 16.3827C10.0259 16.2614 10 16.1314 10 16C10 15.8687 10.0259 15.7387 10.0762 15.6174C10.1264 15.4961 10.2001 15.3858 10.293 15.293L15.293 10.293C15.3858 10.2001 15.4961 10.1264 15.6174 10.0762C15.7387 10.0259 15.8687 10 16 10C16.1314 10 16.2614 10.0259 16.3827 10.0762C16.504 10.1264 16.6142 10.2001 16.707 10.293L21.707 15.293C21.7999 15.3858 21.8736 15.4961 21.9239 15.6174C21.9742 15.7387 22.0001 15.8687 22.0001 16C22.0001 16.1314 21.9742 16.2614 21.9239 16.3827C21.8736 16.504 21.7999 16.6142 21.707 16.707L16.707 21.707C16.6143 21.8 16.5041 21.8738 16.3828 21.9241C16.2614 21.9744 16.1314 22.0002 16 22ZM12.4141 16L16 19.5859L19.5859 16L16 12.4141L12.4141 16Z" fill="black"/>
<path d="M2 16L10 8L11.414 9.414L4.828 16L11.414 22.586L10 24L2 16Z" fill="black"/>
</g>
<defs>
<clipPath id="clip0_1385_1075">
<rect width="32" height="32" fill="white"/>
</clipPath>
</defs>
</svg>
